<svg width="440" height="80" viewBox="0 0 440 80" fill="none" xmlns="http://www.w3.org/2000/svg">
<path d="M433.45 47.3082H387.491V32.6918H433.45V47.3082ZM440 80H387.491C385.476 80 383.274 79.6467 380.885 78.94C378.497 78.2334 376.277 77.0804 374.224 75.4812C372.209 73.8447 370.511 71.7434 369.13 69.1771C367.786 66.5737 367.115 63.3938 367.115 59.6374V7.30823C367.115 6.30404 367.301 5.35565 367.674 4.46304C368.047 3.57043 368.551 2.7894 369.186 2.11994C369.858 1.45049 370.641 0.9298 371.537 0.55788C372.433 0.18596 373.403 0 374.448 0H440V14.5049H381.669V59.6374C381.669 61.5342 382.173 62.9847 383.181 63.9888C384.188 64.993 385.662 65.4951 387.603 65.4951H440V80Z" fill="url(#paint0_linear_5711_54077)"/>
<path d="M353.176 46.5272C353.176 51.3993 352.317 55.881 350.601 59.9721C348.921 64.0632 346.589 67.5965 343.603 70.5718C340.617 73.51 337.072 75.8159 332.967 77.4895C328.862 79.1632 324.402 80 319.588 80H280.29C279.245 80 278.275 79.814 277.379 79.4421C276.483 79.0702 275.7 78.5681 275.028 77.9358C274.394 77.2664 273.89 76.4854 273.517 75.5927C273.143 74.7001 272.957 73.7331 272.957 72.6918V7.30823C272.957 6.30404 273.143 5.35565 273.517 4.46304C273.89 3.57043 274.394 2.7894 275.028 2.11994C275.7 1.45049 276.483 0.9298 277.379 0.55788C278.275 0.18596 279.245 0 280.29 0H319.588C324.402 0 328.862 0.83682 332.967 2.51046C337.072 4.1841 340.617 6.5086 343.603 9.48396C346.589 12.4221 348.921 15.9554 350.601 20.0837C352.317 24.1748 353.176 28.6378 353.176 33.4728V46.5272ZM338.621 33.4728C338.621 30.6462 338.154 28.0614 337.221 25.7183C336.326 23.3752 335.038 21.3854 333.359 19.749C331.679 18.0753 329.664 16.7922 327.313 15.8996C324.999 14.9698 322.424 14.5049 319.588 14.5049H287.511V65.4951H319.588C322.424 65.4951 324.999 65.0488 327.313 64.1562C329.664 63.2264 331.679 61.9433 333.359 60.3068C335.038 58.6332 336.326 56.6434 337.221 54.3375C338.154 51.9944 338.621 49.391 338.621 46.5272V33.4728Z" fill="url(#paint1_linear_5711_54077)"/>
<path d="M256.107 80H241.552V60.3626H190.387V80H175.832V40C175.832 34.1609 176.84 28.7866 178.855 23.8773C180.87 18.9679 183.669 14.7466 187.252 11.2134C190.835 7.68015 195.07 4.92794 199.959 2.95676C204.848 0.985588 210.185 0 215.969 0H248.774C249.781 0 250.733 0.18596 251.629 0.55788C252.524 0.9298 253.308 1.45049 253.98 2.11994C254.651 2.7894 255.174 3.57043 255.547 4.46304C255.92 5.35565 256.107 6.30404 256.107 7.30823V80ZM190.387 45.8577H241.552V14.5049H215.969C215.522 14.5049 214.57 14.5793 213.115 14.728C211.696 14.8396 210.036 15.1557 208.132 15.6764C206.266 16.1971 204.288 16.9967 202.198 18.0753C200.109 19.1539 198.187 20.6416 196.433 22.5384C194.679 24.4351 193.223 26.8154 192.066 29.6792C190.947 32.5058 190.387 35.9461 190.387 40V45.8577Z" fill="url(#paint2_linear_5711_54077)"/>
<path d="M166.651 80H100.26C99.2146 80 98.2443 79.814 97.3486 79.4421C96.4529 79.0702 95.6692 78.5681 94.9975 77.9358C94.363 77.2664 93.8592 76.4854 93.486 75.5927C93.1128 74.7001 92.9262 73.7331 92.9262 72.6918V0H107.481V65.4951H166.651V80Z" fill="url(#paint3_linear_5711_54077)"/>
<path d="M80.2188 62.4268C80.2188 64.212 79.9016 66.1274 79.2672 68.1729C78.6701 70.2185 77.6624 72.1153 76.2443 73.8633C74.8634 75.6113 73.0534 77.0804 70.8143 78.2706C68.5751 79.4235 65.8321 80 62.5852 80H7.33333C6.28838 80 5.31807 79.814 4.42239 79.4421C3.52672 79.0702 2.743 78.5681 2.07125 77.9358C1.43681 77.2664 0.932994 76.4854 0.559797 75.5927C0.186599 74.7001 0 73.7331 0 72.6918V7.30823C0 6.30404 0.186599 5.35565 0.559797 4.46304C0.932994 3.57043 1.43681 2.7894 2.07125 2.11994C2.743 1.45049 3.52672 0.9298 4.42239 0.55788C5.31807 0.18596 6.28838 0 7.33333 0H56.0356C57.827 0 59.7489 0.316132 61.8015 0.948396C63.8541 1.58066 65.7574 2.60344 67.5115 4.01674C69.3028 5.39284 70.7769 7.19665 71.9339 9.42817C73.1281 11.6597 73.7252 14.3933 73.7252 17.629V20.3626C73.7252 22.9289 73.296 25.6997 72.4377 28.675C71.5793 31.6132 70.1985 34.4026 68.2952 37.0432C69.9372 38.0474 71.4674 39.2562 72.8855 40.6695C74.341 42.0827 75.6098 43.7192 76.6921 45.5788C77.7744 47.4384 78.6328 49.5397 79.2672 51.8828C79.9016 54.2259 80.2188 56.8108 80.2188 59.6374V62.4268ZM65.6641 59.6374C65.6641 57.7406 65.3656 56.0483 64.7685 54.5607C64.1713 53.0358 63.3316 51.7341 62.2494 50.6555C61.1671 49.5769 59.8609 48.7587 58.3308 48.2008C56.8007 47.6058 55.084 47.3082 53.1807 47.3082H20.3766V32.6918H46.631C48.5344 32.6918 50.2511 32.4128 51.7812 31.8549C53.3113 31.2599 54.6175 30.4231 55.6998 29.3445C56.782 28.2659 57.6031 26.9828 58.1629 25.4951C58.76 23.9702 59.0585 22.2594 59.0585 20.3626V17.629C59.0585 15.5463 58.0509 14.5049 56.0356 14.5049H14.5547V65.4951H62.5852C62.8465 65.4951 63.1637 65.4765 63.5369 65.4393C63.9101 65.4021 64.246 65.2906 64.5445 65.1046C64.8431 64.9186 65.1043 64.6025 65.3283 64.1562C65.5522 63.7099 65.6641 63.0962 65.6641 62.3152V59.6374Z" fill="url(#paint4_linear_5711_54077)"/>
<defs>
<linearGradient id="paint0_linear_5711_54077" x1="403.557" y1="0" x2="403.557" y2="80" gradientUnits="userSpaceOnUse">
<stop stop-color="#E8BD3A"/>
<stop offset="1" stop-color="#9BA885"/>
</linearGradient>
<linearGradient id="paint1_linear_5711_54077" x1="313.066" y1="0" x2="313.066" y2="80" gradientUnits="userSpaceOnUse">
<stop stop-color="#E8BD3A"/>
<stop offset="1" stop-color="#9BA885"/>
</linearGradient>
<linearGradient id="paint2_linear_5711_54077" x1="215.969" y1="0" x2="215.969" y2="80" gradientUnits="userSpaceOnUse">
<stop stop-color="#E8BD3A"/>
<stop offset="1" stop-color="#9BA885"/>
</linearGradient>
<linearGradient id="paint3_linear_5711_54077" x1="129.789" y1="0" x2="129.789" y2="80" gradientUnits="userSpaceOnUse">
<stop stop-color="#E8BD3A"/>
<stop offset="1" stop-color="#9BA885"/>
</linearGradient>
<linearGradient id="paint4_linear_5711_54077" x1="40.1094" y1="0" x2="40.1094" y2="80" gradientUnits="userSpaceOnUse">
<stop stop-color="#E8BD3A"/>
<stop offset="1" stop-color="#9BA885"/>
</linearGradient>
</defs>
</svg>
